solid OpenSCAD_Model
  facet normal 0.998027 0.0627918 0
    outer loop
      vertex 4 0 13.5
      vertex 3.96846 0.501332 0
      vertex 3.96846 0.501332 13.5
    endloop
  endfacet
  facet normal 0.998027 0.0627918 0
    outer loop
      vertex 3.96846 0.501332 0
      vertex 4 0 13.5
      vertex 4 0 0
    endloop
  endfacet
  facet normal 0 1 -0
    outer loop
      vertex 0.251162 3.99211 0
      vertex -0.251162 3.99211 13.5
      vertex 0.251162 3.99211 13.5
    endloop
  endfacet
  facet normal 0 1 0
    outer loop
      vertex -0.251162 3.99211 13.5
      vertex 0.251162 3.99211 0
      vertex -0.251162 3.99211 0
    endloop
  endfacet
  facet normal 0 -1 0
    outer loop
      vertex -0.251162 -3.99211 0
      vertex 0.251162 -3.99211 13.5
      vertex -0.251162 -3.99211 13.5
    endloop
  endfacet
  facet normal 0 -1 -0
    outer loop
      vertex 0.251162 -3.99211 13.5
      vertex -0.251162 -3.99211 0
      vertex 0.251162 -3.99211 0
    endloop
  endfacet
  facet normal 0.684546 0.72897 -0
    outer loop
      vertex 2.91587 2.73819 0
      vertex 2.5497 3.08205 13.5
      vertex 2.91587 2.73819 13.5
    endloop
  endfacet
  facet normal 0.684546 0.72897 0
    outer loop
      vertex 2.5497 3.08205 13.5
      vertex 2.91587 2.73819 0
      vertex 2.5497 3.08205 0
    endloop
  endfacet
  facet normal -0.684546 0.72897 0
    outer loop
      vertex -2.5497 3.08205 0
      vertex -2.91587 2.73819 13.5
      vertex -2.5497 3.08205 13.5
    endloop
  endfacet
  facet normal -0.684546 0.72897 0
    outer loop
      vertex -2.91587 2.73819 13.5
      vertex -2.5497 3.08205 0
      vertex -2.91587 2.73819 0
    endloop
  endfacet
  facet normal -0.368126 0.929776 0
    outer loop
      vertex -1.23607 3.80423 0
      vertex -1.70312 3.61931 13.5
      vertex -1.23607 3.80423 13.5
    endloop
  endfacet
  facet normal -0.368126 0.929776 0
    outer loop
      vertex -1.70312 3.61931 13.5
      vertex -1.23607 3.80423 0
      vertex -1.70312 3.61931 0
    endloop
  endfacet
  facet normal 0.904827 -0.42578 0
    outer loop
      vertex 3.50523 -1.92701 13.5
      vertex 3.71911 -1.4725 0
      vertex 3.71911 -1.4725 13.5
    endloop
  endfacet
  facet normal 0.904827 -0.42578 0
    outer loop
      vertex 3.71911 -1.4725 0
      vertex 3.50523 -1.92701 13.5
      vertex 3.50523 -1.92701 0
    endloop
  endfacet
  facet normal 0.904827 0.42578 0
    outer loop
      vertex 3.71911 1.4725 13.5
      vertex 3.50523 1.92701 0
      vertex 3.50523 1.92701 13.5
    endloop
  endfacet
  facet normal 0.904827 0.42578 0
    outer loop
      vertex 3.50523 1.92701 0
      vertex 3.71911 1.4725 13.5
      vertex 3.71911 1.4725 0
    endloop
  endfacet
  facet normal 0.844328 0.535826 0
    outer loop
      vertex 3.50523 1.92701 13.5
      vertex 3.23607 2.35114 0
      vertex 3.23607 2.35114 13.5
    endloop
  endfacet
  facet normal 0.844328 0.535826 0
    outer loop
      vertex 3.23607 2.35114 0
      vertex 3.50523 1.92701 13.5
      vertex 3.50523 1.92701 0
    endloop
  endfacet
  facet normal 0.368126 0.929776 -0
    outer loop
      vertex 1.70312 3.61931 0
      vertex 1.23607 3.80423 13.5
      vertex 1.70312 3.61931 13.5
    endloop
  endfacet
  facet normal 0.368126 0.929776 0
    outer loop
      vertex 1.23607 3.80423 13.5
      vertex 1.70312 3.61931 0
      vertex 1.23607 3.80423 0
    endloop
  endfacet
  facet normal 0.24869 0.968583 -0
    outer loop
      vertex 1.23607 3.80423 0
      vertex 0.749525 3.92915 13.5
      vertex 1.23607 3.80423 13.5
    endloop
  endfacet
  facet normal 0.24869 0.968583 0
    outer loop
      vertex 0.749525 3.92915 13.5
      vertex 1.23607 3.80423 0
      vertex 0.749525 3.92915 0
    endloop
  endfacet
  facet normal 0.587785 0.809017 -0
    outer loop
      vertex 2.5497 3.08205 0
      vertex 2.14331 3.37731 13.5
      vertex 2.5497 3.08205 13.5
    endloop
  endfacet
  facet normal 0.587785 0.809017 0
    outer loop
      vertex 2.14331 3.37731 13.5
      vertex 2.5497 3.08205 0
      vertex 2.14331 3.37731 0
    endloop
  endfacet
  facet normal -0.770513 0.637424 0
    outer loop
      vertex -3 2.6365 0
      vertex -2.91587 2.73819 13.5
      vertex -2.91587 2.73819 0
    endloop
  endfacet
  facet normal -0.770513 0.637424 0
    outer loop
      vertex -2.91587 2.73819 13.5
      vertex -3 2.6365 0
      vertex -3 2.6365 13.5
    endloop
  endfacet
  facet normal -0.481754 0.876307 0
    outer loop
      vertex -1.70312 3.61931 0
      vertex -2.14331 3.37731 13.5
      vertex -1.70312 3.61931 13.5
    endloop
  endfacet
  facet normal -0.481754 0.876307 0
    outer loop
      vertex -2.14331 3.37731 13.5
      vertex -1.70312 3.61931 0
      vertex -2.14331 3.37731 0
    endloop
  endfacet
  facet normal -0.24869 0.968583 0
    outer loop
      vertex -0.749525 3.92915 0
      vertex -1.23607 3.80423 13.5
      vertex -0.749525 3.92915 13.5
    endloop
  endfacet
  facet normal -0.24869 0.968583 0
    outer loop
      vertex -1.23607 3.80423 13.5
      vertex -0.749525 3.92915 0
      vertex -1.23607 3.80423 0
    endloop
  endfacet
  facet normal 0.125333 -0.992115 0
    outer loop
      vertex 0.251162 -3.99211 0
      vertex 0.749525 -3.92915 13.5
      vertex 0.251162 -3.99211 13.5
    endloop
  endfacet
  facet normal 0.125333 -0.992115 0
    outer loop
      vertex 0.749525 -3.92915 13.5
      vertex 0.251162 -3.99211 0
      vertex 0.749525 -3.92915 0
    endloop
  endfacet
  facet normal 0.368126 -0.929776 0
    outer loop
      vertex 1.23607 -3.80423 0
      vertex 1.70312 -3.61931 13.5
      vertex 1.23607 -3.80423 13.5
    endloop
  endfacet
  facet normal 0.368126 -0.929776 0
    outer loop
      vertex 1.70312 -3.61931 13.5
      vertex 1.23607 -3.80423 0
      vertex 1.70312 -3.61931 0
    endloop
  endfacet
  facet normal 0.951057 0.309017 0
    outer loop
      vertex 3.87433 0.994759 13.5
      vertex 3.71911 1.4725 0
      vertex 3.71911 1.4725 13.5
    endloop
  endfacet
  facet normal 0.951057 0.309017 0
    outer loop
      vertex 3.71911 1.4725 0
      vertex 3.87433 0.994759 13.5
      vertex 3.87433 0.994759 0
    endloop
  endfacet
  facet normal 0.982287 0.187381 0
    outer loop
      vertex 3.96846 0.501332 13.5
      vertex 3.87433 0.994759 0
      vertex 3.87433 0.994759 13.5
    endloop
  endfacet
  facet normal 0.982287 0.187381 0
    outer loop
      vertex 3.87433 0.994759 0
      vertex 3.96846 0.501332 13.5
      vertex 3.96846 0.501332 0
    endloop
  endfacet
  facet normal 0.770513 0.637424 0
    outer loop
      vertex 3.23607 2.35114 13.5
      vertex 2.91587 2.73819 0
      vertex 2.91587 2.73819 13.5
    endloop
  endfacet
  facet normal 0.770513 0.637424 0
    outer loop
      vertex 2.91587 2.73819 0
      vertex 3.23607 2.35114 13.5
      vertex 3.23607 2.35114 0
    endloop
  endfacet
  facet normal 0.125333 0.992115 -0
    outer loop
      vertex 0.749525 3.92915 0
      vertex 0.251162 3.99211 13.5
      vertex 0.749525 3.92915 13.5
    endloop
  endfacet
  facet normal 0.125333 0.992115 0
    outer loop
      vertex 0.251162 3.99211 13.5
      vertex 0.749525 3.92915 0
      vertex 0.251162 3.99211 0
    endloop
  endfacet
  facet normal 0.481754 0.876307 -0
    outer loop
      vertex 2.14331 3.37731 0
      vertex 1.70312 3.61931 13.5
      vertex 2.14331 3.37731 13.5
    endloop
  endfacet
  facet normal 0.481754 0.876307 0
    outer loop
      vertex 1.70312 3.61931 13.5
      vertex 2.14331 3.37731 0
      vertex 1.70312 3.61931 0
    endloop
  endfacet
  facet normal 0 0 1
    outer loop
      vertex 0 0 13.5
      vertex 4 0 13.5
      vertex 3.96846 0.501332 13.5
    endloop
  endfacet
  facet normal 0 0 1
    outer loop
      vertex -0.01577 0.250666 13.5
      vertex 3.96846 0.501332 13.5
      vertex 3.87433 0.994759 13.5
    endloop
  endfacet
  facet normal 0 0 1
    outer loop
      vertex 4 0 13.5
      vertex 0 0 13.5
      vertex 3.96846 -0.501332 13.5
    endloop
  endfacet
  facet normal 0 0 1
    outer loop
      vertex -0.01577 0.250666 13.5
      vertex 3.87433 0.994759 13.5
      vertex 3.71911 1.4725 13.5
    endloop
  endfacet
  facet normal -0 0 1
    outer loop
      vertex -0.01577 -0.250666 13.5
      vertex 3.96846 -0.501332 13.5
      vertex 0 0 13.5
    endloop
  endfacet
  facet normal 0 0 1
    outer loop
      vertex -0.0628328 0.497379 13.5
      vertex 3.71911 1.4725 13.5
      vertex 3.50523 1.92701 13.5
    endloop
  endfacet
  facet normal 0 0 1
    outer loop
      vertex 3.96846 -0.501332 13.5
      vertex -0.01577 -0.250666 13.5
      vertex 3.87433 -0.994759 13.5
    endloop
  endfacet
  facet normal 0 0 1
    outer loop
      vertex -0.0628328 0.497379 13.5
      vertex 3.50523 1.92701 13.5
      vertex 3.23607 2.35114 13.5
    endloop
  endfacet
  facet normal 0 0 1
    outer loop
      vertex 3.87433 -0.994759 13.5
      vertex -0.01577 -0.250666 13.5
      vertex 3.71911 -1.4725 13.5
    endloop
  endfacet
  facet normal 0 0 1
    outer loop
      vertex -0.140447 0.736249 13.5
      vertex 3.23607 2.35114 13.5
      vertex 2.91587 2.73819 13.5
    endloop
  endfacet
  facet normal -0 0 1
    outer loop
      vertex -0.0628328 -0.497379 13.5
      vertex 3.71911 -1.4725 13.5
      vertex -0.01577 -0.250666 13.5
    endloop
  endfacet
  facet normal 0 0 1
    outer loop
      vertex -0.140447 0.736249 13.5
      vertex 2.91587 2.73819 13.5
      vertex 2.5497 3.08205 13.5
    endloop
  endfacet
  facet normal 0 0 1
    outer loop
      vertex 3.71911 -1.4725 13.5
      vertex -0.0628328 -0.497379 13.5
      vertex 3.50523 -1.92701 13.5
    endloop
  endfacet
  facet normal 0 0 1
    outer loop
      vertex -0.247386 0.963507 13.5
      vertex 2.5497 3.08205 13.5
      vertex 2.14331 3.37731 13.5
    endloop
  endfacet
  facet normal 0 0 1
    outer loop
      vertex 3.50523 -1.92701 13.5
      vertex -0.0628328 -0.497379 13.5
      vertex 3.23607 -2.35114 13.5
    endloop
  endfacet
  facet normal 0 0 1
    outer loop
      vertex -0.381966 1.17557 13.5
      vertex 2.14331 3.37731 13.5
      vertex 1.70312 3.61931 13.5
    endloop
  endfacet
  facet normal -0 0 1
    outer loop
      vertex -0.140447 -0.736249 13.5
      vertex 3.23607 -2.35114 13.5
      vertex -0.0628328 -0.497379 13.5
    endloop
  endfacet
  facet normal 0 0 1
    outer loop
      vertex -0.381966 1.17557 13.5
      vertex 1.70312 3.61931 13.5
      vertex 1.23607 3.80423 13.5
    endloop
  endfacet
  facet normal 0 0 1
    outer loop
      vertex 3.23607 -2.35114 13.5
      vertex -0.140447 -0.736249 13.5
      vertex 2.91587 -2.73819 13.5
    endloop
  endfacet
  facet normal 0 0 1
    outer loop
      vertex -0.542062 1.36909 13.5
      vertex 1.23607 3.80423 13.5
      vertex 0.749525 3.92915 13.5
    endloop
  endfacet
  facet normal 0 0 1
    outer loop
      vertex 2.91587 -2.73819 13.5
      vertex -0.140447 -0.736249 13.5
      vertex 2.5497 -3.08205 13.5
    endloop
  endfacet
  facet normal 0 0 1
    outer loop
      vertex -0.725152 1.54103 13.5
      vertex 0.749525 3.92915 13.5
      vertex 0.251162 3.99211 13.5
    endloop
  endfacet
  facet normal -0 0 1
    outer loop
      vertex -0.247386 -0.963507 13.5
      vertex 2.5497 -3.08205 13.5
      vertex -0.140447 -0.736249 13.5
    endloop
  endfacet
  facet normal 0 0 1
    outer loop
      vertex 2.5497 -3.08205 13.5
      vertex -0.247386 -0.963507 13.5
      vertex 2.14331 -3.37731 13.5
    endloop
  endfacet
  facet normal 0 0 1
    outer loop
      vertex 3.96846 0.501332 13.5
      vertex -0.01577 0.250666 13.5
      vertex 0 0 13.5
    endloop
  endfacet
  facet normal 0 0 1
    outer loop
      vertex 3.71911 1.4725 13.5
      vertex -0.0628328 0.497379 13.5
      vertex -0.01577 0.250666 13.5
    endloop
  endfacet
  facet normal 0 0 1
    outer loop
      vertex 3.23607 2.35114 13.5
      vertex -0.140447 0.736249 13.5
      vertex -0.0628328 0.497379 13.5
    endloop
  endfacet
  facet normal 0 0 1
    outer loop
      vertex 2.5497 3.08205 13.5
      vertex -0.247386 0.963507 13.5
      vertex -0.140447 0.736249 13.5
    endloop
  endfacet
  facet normal 0 0 1
    outer loop
      vertex -0.725152 1.54103 13.5
      vertex 0.251162 3.99211 13.5
      vertex -0.251162 3.99211 13.5
    endloop
  endfacet
  facet normal 0 0 1
    outer loop
      vertex 2.14331 3.37731 13.5
      vertex -0.381966 1.17557 13.5
      vertex -0.247386 0.963507 13.5
    endloop
  endfacet
  facet normal 0 0 1
    outer loop
      vertex 1.23607 3.80423 13.5
      vertex -0.542062 1.36909 13.5
      vertex -0.381966 1.17557 13.5
    endloop
  endfacet
  facet normal 0 0 1
    outer loop
      vertex 0.749525 3.92915 13.5
      vertex -0.725152 1.54103 13.5
      vertex -0.542062 1.36909 13.5
    endloop
  endfacet
  facet normal 0 0 1
    outer loop
      vertex -0.928346 1.68865 13.5
      vertex -0.251162 3.99211 13.5
      vertex -0.749525 3.92915 13.5
    endloop
  endfacet
  facet normal 0 0 1
    outer loop
      vertex -0.251162 3.99211 13.5
      vertex -0.928346 1.68865 13.5
      vertex -0.725152 1.54103 13.5
    endloop
  endfacet
  facet normal 0 0 1
    outer loop
      vertex -0.749525 3.92915 13.5
      vertex -1.14844 1.80965 13.5
      vertex -0.928346 1.68865 13.5
    endloop
  endfacet
  facet normal -0 0 1
    outer loop
      vertex -1.23607 3.80423 13.5
      vertex -1.14844 1.80965 13.5
      vertex -0.749525 3.92915 13.5
    endloop
  endfacet
  facet normal 0 0 1
    outer loop
      vertex -1.23607 3.80423 13.5
      vertex -1.38197 1.90211 13.5
      vertex -1.14844 1.80965 13.5
    endloop
  endfacet
  facet normal -0 0 1
    outer loop
      vertex -1.70312 3.61931 13.5
      vertex -1.38197 1.90211 13.5
      vertex -1.23607 3.80423 13.5
    endloop
  endfacet
  facet normal 0 0 1
    outer loop
      vertex -1.38197 1.90211 13.5
      vertex -1.70312 3.61931 13.5
      vertex -1.62524 1.96457 13.5
    endloop
  endfacet
  facet normal -0 0 1
    outer loop
      vertex -2.14331 3.37731 13.5
      vertex -1.62524 1.96457 13.5
      vertex -1.70312 3.61931 13.5
    endloop
  endfacet
  facet normal 0 0 1
    outer loop
      vertex -1.62524 1.96457 13.5
      vertex -2.14331 3.37731 13.5
      vertex -1.87442 1.99605 13.5
    endloop
  endfacet
  facet normal -0 0 1
    outer loop
      vertex -2.5497 3.08205 13.5
      vertex -1.87442 1.99605 13.5
      vertex -2.14331 3.37731 13.5
    endloop
  endfacet
  facet normal 0 0 1
    outer loop
      vertex -1.87442 1.99605 13.5
      vertex -2.5497 3.08205 13.5
      vertex -2.12558 1.99605 13.5
    endloop
  endfacet
  facet normal 0 0 1
    outer loop
      vertex -2.12558 1.99605 13.5
      vertex -2.5497 3.08205 13.5
      vertex -2.37476 1.96457 13.5
    endloop
  endfacet
  facet normal -0 0 1
    outer loop
      vertex -2.91587 2.73819 13.5
      vertex -2.37476 1.96457 13.5
      vertex -2.5497 3.08205 13.5
    endloop
  endfacet
  facet normal -0 0 1
    outer loop
      vertex -3 2.6365 13.5
      vertex -2.37476 1.96457 13.5
      vertex -2.91587 2.73819 13.5
    endloop
  endfacet
  facet normal 0 0 1
    outer loop
      vertex -2.37476 1.96457 13.5
      vertex -3 2.6365 13.5
      vertex -2.61803 1.90211 13.5
    endloop
  endfacet
  facet normal 0 0 1
    outer loop
      vertex -2.61803 1.90211 13.5
      vertex -3 2.6365 13.5
      vertex -2.85156 1.80965 13.5
    endloop
  endfacet
  facet normal 0 0 1
    outer loop
      vertex -2.85156 1.80965 13.5
      vertex -3 2.6365 13.5
      vertex -3 1.72805 13.5
    endloop
  endfacet
  facet normal -0 0 1
    outer loop
      vertex -0.381966 -1.17557 13.5
      vertex 2.14331 -3.37731 13.5
      vertex -0.247386 -0.963507 13.5
    endloop
  endfacet
  facet normal 0 0 1
    outer loop
      vertex 2.14331 -3.37731 13.5
      vertex -0.381966 -1.17557 13.5
      vertex 1.70312 -3.61931 13.5
    endloop
  endfacet
  facet normal 0 0 1
    outer loop
      vertex 1.70312 -3.61931 13.5
      vertex -0.381966 -1.17557 13.5
      vertex 1.23607 -3.80423 13.5
    endloop
  endfacet
  facet normal -0 0 1
    outer loop
      vertex -0.542062 -1.36909 13.5
      vertex 1.23607 -3.80423 13.5
      vertex -0.381966 -1.17557 13.5
    endloop
  endfacet
  facet normal 0 0 1
    outer loop
      vertex 1.23607 -3.80423 13.5
      vertex -0.542062 -1.36909 13.5
      vertex 0.749525 -3.92915 13.5
    endloop
  endfacet
  facet normal -0 0 1
    outer loop
      vertex -0.725152 -1.54103 13.5
      vertex 0.749525 -3.92915 13.5
      vertex -0.542062 -1.36909 13.5
    endloop
  endfacet
  facet normal 0 0 1
    outer loop
      vertex 0.749525 -3.92915 13.5
      vertex -0.725152 -1.54103 13.5
      vertex 0.251162 -3.99211 13.5
    endloop
  endfacet
  facet normal 0 0 1
    outer loop
      vertex 0.251162 -3.99211 13.5
      vertex -0.725152 -1.54103 13.5
      vertex -0.251162 -3.99211 13.5
    endloop
  endfacet
  facet normal -0 0 1
    outer loop
      vertex -0.928346 -1.68865 13.5
      vertex -0.251162 -3.99211 13.5
      vertex -0.725152 -1.54103 13.5
    endloop
  endfacet
  facet normal 0 0 1
    outer loop
      vertex -0.251162 -3.99211 13.5
      vertex -0.928346 -1.68865 13.5
      vertex -0.749525 -3.92915 13.5
    endloop
  endfacet
  facet normal -0 0 1
    outer loop
      vertex -1.14844 -1.80965 13.5
      vertex -0.749525 -3.92915 13.5
      vertex -0.928346 -1.68865 13.5
    endloop
  endfacet
  facet normal 0 0 1
    outer loop
      vertex -1.14844 -1.80965 13.5
      vertex -1.23607 -3.80423 13.5
      vertex -0.749525 -3.92915 13.5
    endloop
  endfacet
  facet normal -0 0 1
    outer loop
      vertex -1.38197 -1.90211 13.5
      vertex -1.23607 -3.80423 13.5
      vertex -1.14844 -1.80965 13.5
    endloop
  endfacet
  facet normal 0 0 1
    outer loop
      vertex -1.70312 -3.61931 13.5
      vertex -1.38197 -1.90211 13.5
      vertex -1.62524 -1.96457 13.5
    endloop
  endfacet
  facet normal 0 0 1
    outer loop
      vertex -1.38197 -1.90211 13.5
      vertex -1.70312 -3.61931 13.5
      vertex -1.23607 -3.80423 13.5
    endloop
  endfacet
  facet normal 0 0 1
    outer loop
      vertex -2.14331 -3.37731 13.5
      vertex -1.62524 -1.96457 13.5
      vertex -1.87442 -1.99605 13.5
    endloop
  endfacet
  facet normal 0 0 1
    outer loop
      vertex -2.5497 -3.08205 13.5
      vertex -1.87442 -1.99605 13.5
      vertex -2.12558 -1.99605 13.5
    endloop
  endfacet
  facet normal 0 0 1
    outer loop
      vertex -1.62524 -1.96457 13.5
      vertex -2.14331 -3.37731 13.5
      vertex -1.70312 -3.61931 13.5
    endloop
  endfacet
  facet normal 0 0 1
    outer loop
      vertex -2.5497 -3.08205 13.5
      vertex -2.12558 -1.99605 13.5
      vertex -2.37476 -1.96457 13.5
    endloop
  endfacet
  facet normal 0 0 1
    outer loop
      vertex -1.87442 -1.99605 13.5
      vertex -2.5497 -3.08205 13.5
      vertex -2.14331 -3.37731 13.5
    endloop
  endfacet
  facet normal 0 0 1
    outer loop
      vertex -3 -2.6365 13.5
      vertex -2.37476 -1.96457 13.5
      vertex -2.61803 -1.90211 13.5
    endloop
  endfacet
  facet normal 0 0 1
    outer loop
      vertex -3 -2.6365 13.5
      vertex -2.61803 -1.90211 13.5
      vertex -2.85156 -1.80965 13.5
    endloop
  endfacet
  facet normal 0 0 1
    outer loop
      vertex -2.37476 -1.96457 13.5
      vertex -2.91587 -2.73819 13.5
      vertex -2.5497 -3.08205 13.5
    endloop
  endfacet
  facet normal 0 0 1
    outer loop
      vertex -3 -2.6365 13.5
      vertex -2.85156 -1.80965 13.5
      vertex -3 -1.72805 13.5
    endloop
  endfacet
  facet normal 0 0 1
    outer loop
      vertex -2.37476 -1.96457 13.5
      vertex -3 -2.6365 13.5
      vertex -2.91587 -2.73819 13.5
    endloop
  endfacet
  facet normal -0.587785 0.809017 0
    outer loop
      vertex -2.14331 3.37731 0
      vertex -2.5497 3.08205 13.5
      vertex -2.14331 3.37731 13.5
    endloop
  endfacet
  facet normal -0.587785 0.809017 0
    outer loop
      vertex -2.5497 3.08205 13.5
      vertex -2.14331 3.37731 0
      vertex -2.5497 3.08205 0
    endloop
  endfacet
  facet normal -0.125333 0.992115 0
    outer loop
      vertex -0.251162 3.99211 0
      vertex -0.749525 3.92915 13.5
      vertex -0.251162 3.99211 13.5
    endloop
  endfacet
  facet normal -0.125333 0.992115 0
    outer loop
      vertex -0.749525 3.92915 13.5
      vertex -0.251162 3.99211 0
      vertex -0.749525 3.92915 0
    endloop
  endfacet
  facet normal 0.998027 -0.0627918 0
    outer loop
      vertex 3.96846 -0.501332 13.5
      vertex 4 0 0
      vertex 4 0 13.5
    endloop
  endfacet
  facet normal 0.998027 -0.0627918 0
    outer loop
      vertex 4 0 0
      vertex 3.96846 -0.501332 13.5
      vertex 3.96846 -0.501332 0
    endloop
  endfacet
  facet normal 0.770513 -0.637424 0
    outer loop
      vertex 2.91587 -2.73819 13.5
      vertex 3.23607 -2.35114 0
      vertex 3.23607 -2.35114 13.5
    endloop
  endfacet
  facet normal 0.770513 -0.637424 0
    outer loop
      vertex 3.23607 -2.35114 0
      vertex 2.91587 -2.73819 13.5
      vertex 2.91587 -2.73819 0
    endloop
  endfacet
  facet normal 0.951057 -0.309017 0
    outer loop
      vertex 3.71911 -1.4725 13.5
      vertex 3.87433 -0.994759 0
      vertex 3.87433 -0.994759 13.5
    endloop
  endfacet
  facet normal 0.951057 -0.309017 0
    outer loop
      vertex 3.87433 -0.994759 0
      vertex 3.71911 -1.4725 13.5
      vertex 3.71911 -1.4725 0
    endloop
  endfacet
  facet normal 0.982287 -0.187381 0
    outer loop
      vertex 3.87433 -0.994759 13.5
      vertex 3.96846 -0.501332 0
      vertex 3.96846 -0.501332 13.5
    endloop
  endfacet
  facet normal 0.982287 -0.187381 0
    outer loop
      vertex 3.96846 -0.501332 0
      vertex 3.87433 -0.994759 13.5
      vertex 3.87433 -0.994759 0
    endloop
  endfacet
  facet normal -0.770513 -0.637424 0
    outer loop
      vertex -2.91587 -2.73819 0
      vertex -3 -2.6365 13.5
      vertex -3 -2.6365 0
    endloop
  endfacet
  facet normal -0.770513 -0.637424 0
    outer loop
      vertex -3 -2.6365 13.5
      vertex -2.91587 -2.73819 0
      vertex -2.91587 -2.73819 13.5
    endloop
  endfacet
  facet normal 0 0 -1
    outer loop
      vertex 0 0 0
      vertex 4 0 0
      vertex 3.96846 -0.501332 0
    endloop
  endfacet
  facet normal 0 0 -1
    outer loop
      vertex -0.01577 -0.250666 0
      vertex 3.96846 -0.501332 0
      vertex 3.87433 -0.994759 0
    endloop
  endfacet
  facet normal 0 0 -1
    outer loop
      vertex 4 0 0
      vertex 0 0 0
      vertex 3.96846 0.501332 0
    endloop
  endfacet
  facet normal 0 0 -1
    outer loop
      vertex -0.01577 -0.250666 0
      vertex 3.87433 -0.994759 0
      vertex 3.71911 -1.4725 0
    endloop
  endfacet
  facet normal 0 0 -1
    outer loop
      vertex -0.01577 0.250666 0
      vertex 3.96846 0.501332 0
      vertex 0 0 0
    endloop
  endfacet
  facet normal 0 0 -1
    outer loop
      vertex -0.0628328 -0.497379 0
      vertex 3.71911 -1.4725 0
      vertex 3.50523 -1.92701 0
    endloop
  endfacet
  facet normal -0 0 -1
    outer loop
      vertex 3.96846 0.501332 0
      vertex -0.01577 0.250666 0
      vertex 3.87433 0.994759 0
    endloop
  endfacet
  facet normal 0 0 -1
    outer loop
      vertex -0.0628328 -0.497379 0
      vertex 3.50523 -1.92701 0
      vertex 3.23607 -2.35114 0
    endloop
  endfacet
  facet normal -0 0 -1
    outer loop
      vertex 3.87433 0.994759 0
      vertex -0.01577 0.250666 0
      vertex 3.71911 1.4725 0
    endloop
  endfacet
  facet normal 0 0 -1
    outer loop
      vertex -0.140447 -0.736249 0
      vertex 3.23607 -2.35114 0
      vertex 2.91587 -2.73819 0
    endloop
  endfacet
  facet normal 0 0 -1
    outer loop
      vertex -0.0628328 0.497379 0
      vertex 3.71911 1.4725 0
      vertex -0.01577 0.250666 0
    endloop
  endfacet
  facet normal 0 0 -1
    outer loop
      vertex -0.140447 -0.736249 0
      vertex 2.91587 -2.73819 0
      vertex 2.5497 -3.08205 0
    endloop
  endfacet
  facet normal -0 0 -1
    outer loop
      vertex 3.71911 1.4725 0
      vertex -0.0628328 0.497379 0
      vertex 3.50523 1.92701 0
    endloop
  endfacet
  facet normal 0 0 -1
    outer loop
      vertex -0.247386 -0.963507 0
      vertex 2.5497 -3.08205 0
      vertex 2.14331 -3.37731 0
    endloop
  endfacet
  facet normal -0 0 -1
    outer loop
      vertex 3.50523 1.92701 0
      vertex -0.0628328 0.497379 0
      vertex 3.23607 2.35114 0
    endloop
  endfacet
  facet normal 0 0 -1
    outer loop
      vertex -0.381966 -1.17557 0
      vertex 2.14331 -3.37731 0
      vertex 1.70312 -3.61931 0
    endloop
  endfacet
  facet normal 0 0 -1
    outer loop
      vertex -0.140447 0.736249 0
      vertex 3.23607 2.35114 0
      vertex -0.0628328 0.497379 0
    endloop
  endfacet
  facet normal 0 0 -1
    outer loop
      vertex -0.381966 -1.17557 0
      vertex 1.70312 -3.61931 0
      vertex 1.23607 -3.80423 0
    endloop
  endfacet
  facet normal -0 0 -1
    outer loop
      vertex 3.23607 2.35114 0
      vertex -0.140447 0.736249 0
      vertex 2.91587 2.73819 0
    endloop
  endfacet
  facet normal 0 0 -1
    outer loop
      vertex -0.542062 -1.36909 0
      vertex 1.23607 -3.80423 0
      vertex 0.749525 -3.92915 0
    endloop
  endfacet
  facet normal -0 0 -1
    outer loop
      vertex 2.91587 2.73819 0
      vertex -0.140447 0.736249 0
      vertex 2.5497 3.08205 0
    endloop
  endfacet
  facet normal 0 0 -1
    outer loop
      vertex -0.725152 -1.54103 0
      vertex 0.749525 -3.92915 0
      vertex 0.251162 -3.99211 0
    endloop
  endfacet
  facet normal 0 0 -1
    outer loop
      vertex -0.247386 0.963507 0
      vertex 2.5497 3.08205 0
      vertex -0.140447 0.736249 0
    endloop
  endfacet
  facet normal -0 0 -1
    outer loop
      vertex 2.5497 3.08205 0
      vertex -0.247386 0.963507 0
      vertex 2.14331 3.37731 0
    endloop
  endfacet
  facet normal 0 0 -1
    outer loop
      vertex 3.96846 -0.501332 0
      vertex -0.01577 -0.250666 0
      vertex 0 0 0
    endloop
  endfacet
  facet normal 0 0 -1
    outer loop
      vertex 3.71911 -1.4725 0
      vertex -0.0628328 -0.497379 0
      vertex -0.01577 -0.250666 0
    endloop
  endfacet
  facet normal 0 0 -1
    outer loop
      vertex 3.23607 -2.35114 0
      vertex -0.140447 -0.736249 0
      vertex -0.0628328 -0.497379 0
    endloop
  endfacet
  facet normal 0 0 -1
    outer loop
      vertex 2.5497 -3.08205 0
      vertex -0.247386 -0.963507 0
      vertex -0.140447 -0.736249 0
    endloop
  endfacet
  facet normal 0 0 -1
    outer loop
      vertex -0.725152 -1.54103 0
      vertex 0.251162 -3.99211 0
      vertex -0.251162 -3.99211 0
    endloop
  endfacet
  facet normal 0 0 -1
    outer loop
      vertex 2.14331 -3.37731 0
      vertex -0.381966 -1.17557 0
      vertex -0.247386 -0.963507 0
    endloop
  endfacet
  facet normal 0 0 -1
    outer loop
      vertex 1.23607 -3.80423 0
      vertex -0.542062 -1.36909 0
      vertex -0.381966 -1.17557 0
    endloop
  endfacet
  facet normal 0 0 -1
    outer loop
      vertex 0.749525 -3.92915 0
      vertex -0.725152 -1.54103 0
      vertex -0.542062 -1.36909 0
    endloop
  endfacet
  facet normal 0 0 -1
    outer loop
      vertex -0.928346 -1.68865 0
      vertex -0.251162 -3.99211 0
      vertex -0.749525 -3.92915 0
    endloop
  endfacet
  facet normal 0 0 -1
    outer loop
      vertex -0.251162 -3.99211 0
      vertex -0.928346 -1.68865 0
      vertex -0.725152 -1.54103 0
    endloop
  endfacet
  facet normal 0 0 -1
    outer loop
      vertex -0.749525 -3.92915 0
      vertex -1.14844 -1.80965 0
      vertex -0.928346 -1.68865 0
    endloop
  endfacet
  facet normal 0 0 -1
    outer loop
      vertex -1.23607 -3.80423 0
      vertex -1.14844 -1.80965 0
      vertex -0.749525 -3.92915 0
    endloop
  endfacet
  facet normal 0 0 -1
    outer loop
      vertex -1.23607 -3.80423 0
      vertex -1.38197 -1.90211 0
      vertex -1.14844 -1.80965 0
    endloop
  endfacet
  facet normal 0 0 -1
    outer loop
      vertex -1.70312 -3.61931 0
      vertex -1.38197 -1.90211 0
      vertex -1.23607 -3.80423 0
    endloop
  endfacet
  facet normal 0 0 -1
    outer loop
      vertex -1.38197 -1.90211 0
      vertex -1.70312 -3.61931 0
      vertex -1.62524 -1.96457 0
    endloop
  endfacet
  facet normal 0 0 -1
    outer loop
      vertex -2.14331 -3.37731 0
      vertex -1.62524 -1.96457 0
      vertex -1.70312 -3.61931 0
    endloop
  endfacet
  facet normal 0 0 -1
    outer loop
      vertex -1.62524 -1.96457 0
      vertex -2.14331 -3.37731 0
      vertex -1.87442 -1.99605 0
    endloop
  endfacet
  facet normal 0 0 -1
    outer loop
      vertex -2.5497 -3.08205 0
      vertex -1.87442 -1.99605 0
      vertex -2.14331 -3.37731 0
    endloop
  endfacet
  facet normal -0 0 -1
    outer loop
      vertex -1.87442 -1.99605 0
      vertex -2.5497 -3.08205 0
      vertex -2.12558 -1.99605 0
    endloop
  endfacet
  facet normal -0 0 -1
    outer loop
      vertex -2.12558 -1.99605 0
      vertex -2.5497 -3.08205 0
      vertex -2.37476 -1.96457 0
    endloop
  endfacet
  facet normal 0 0 -1
    outer loop
      vertex -2.91587 -2.73819 0
      vertex -2.37476 -1.96457 0
      vertex -2.5497 -3.08205 0
    endloop
  endfacet
  facet normal 0 0 -1
    outer loop
      vertex -3 -2.6365 0
      vertex -2.37476 -1.96457 0
      vertex -2.91587 -2.73819 0
    endloop
  endfacet
  facet normal -0 0 -1
    outer loop
      vertex -2.37476 -1.96457 0
      vertex -3 -2.6365 0
      vertex -2.61803 -1.90211 0
    endloop
  endfacet
  facet normal -0 0 -1
    outer loop
      vertex -2.61803 -1.90211 0
      vertex -3 -2.6365 0
      vertex -2.85156 -1.80965 0
    endloop
  endfacet
  facet normal -0 0 -1
    outer loop
      vertex -2.85156 -1.80965 0
      vertex -3 -2.6365 0
      vertex -3 -1.72805 0
    endloop
  endfacet
  facet normal 0 0 -1
    outer loop
      vertex -0.381966 1.17557 0
      vertex 2.14331 3.37731 0
      vertex -0.247386 0.963507 0
    endloop
  endfacet
  facet normal -0 0 -1
    outer loop
      vertex 2.14331 3.37731 0
      vertex -0.381966 1.17557 0
      vertex 1.70312 3.61931 0
    endloop
  endfacet
  facet normal -0 0 -1
    outer loop
      vertex 1.70312 3.61931 0
      vertex -0.381966 1.17557 0
      vertex 1.23607 3.80423 0
    endloop
  endfacet
  facet normal 0 0 -1
    outer loop
      vertex -0.542062 1.36909 0
      vertex 1.23607 3.80423 0
      vertex -0.381966 1.17557 0
    endloop
  endfacet
  facet normal -0 0 -1
    outer loop
      vertex 1.23607 3.80423 0
      vertex -0.542062 1.36909 0
      vertex 0.749525 3.92915 0
    endloop
  endfacet
  facet normal 0 0 -1
    outer loop
      vertex -0.725152 1.54103 0
      vertex 0.749525 3.92915 0
      vertex -0.542062 1.36909 0
    endloop
  endfacet
  facet normal -0 0 -1
    outer loop
      vertex 0.749525 3.92915 0
      vertex -0.725152 1.54103 0
      vertex 0.251162 3.99211 0
    endloop
  endfacet
  facet normal -0 0 -1
    outer loop
      vertex 0.251162 3.99211 0
      vertex -0.725152 1.54103 0
      vertex -0.251162 3.99211 0
    endloop
  endfacet
  facet normal 0 0 -1
    outer loop
      vertex -0.928346 1.68865 0
      vertex -0.251162 3.99211 0
      vertex -0.725152 1.54103 0
    endloop
  endfacet
  facet normal 0 0 -1
    outer loop
      vertex -0.251162 3.99211 0
      vertex -0.928346 1.68865 0
      vertex -0.749525 3.92915 0
    endloop
  endfacet
  facet normal 0 0 -1
    outer loop
      vertex -1.14844 1.80965 0
      vertex -0.749525 3.92915 0
      vertex -0.928346 1.68865 0
    endloop
  endfacet
  facet normal 0 0 -1
    outer loop
      vertex -1.14844 1.80965 0
      vertex -1.23607 3.80423 0
      vertex -0.749525 3.92915 0
    endloop
  endfacet
  facet normal 0 0 -1
    outer loop
      vertex -1.38197 1.90211 0
      vertex -1.23607 3.80423 0
      vertex -1.14844 1.80965 0
    endloop
  endfacet
  facet normal 0 0 -1
    outer loop
      vertex -1.70312 3.61931 0
      vertex -1.38197 1.90211 0
      vertex -1.62524 1.96457 0
    endloop
  endfacet
  facet normal 0 0 -1
    outer loop
      vertex -1.38197 1.90211 0
      vertex -1.70312 3.61931 0
      vertex -1.23607 3.80423 0
    endloop
  endfacet
  facet normal 0 0 -1
    outer loop
      vertex -2.14331 3.37731 0
      vertex -1.62524 1.96457 0
      vertex -1.87442 1.99605 0
    endloop
  endfacet
  facet normal 0 0 -1
    outer loop
      vertex -2.5497 3.08205 0
      vertex -1.87442 1.99605 0
      vertex -2.12558 1.99605 0
    endloop
  endfacet
  facet normal 0 0 -1
    outer loop
      vertex -1.62524 1.96457 0
      vertex -2.14331 3.37731 0
      vertex -1.70312 3.61931 0
    endloop
  endfacet
  facet normal 0 0 -1
    outer loop
      vertex -2.5497 3.08205 0
      vertex -2.12558 1.99605 0
      vertex -2.37476 1.96457 0
    endloop
  endfacet
  facet normal 0 0 -1
    outer loop
      vertex -1.87442 1.99605 0
      vertex -2.5497 3.08205 0
      vertex -2.14331 3.37731 0
    endloop
  endfacet
  facet normal 0 0 -1
    outer loop
      vertex -3 2.6365 0
      vertex -2.37476 1.96457 0
      vertex -2.61803 1.90211 0
    endloop
  endfacet
  facet normal 0 0 -1
    outer loop
      vertex -3 2.6365 0
      vertex -2.61803 1.90211 0
      vertex -2.85156 1.80965 0
    endloop
  endfacet
  facet normal 0 0 -1
    outer loop
      vertex -2.37476 1.96457 0
      vertex -2.91587 2.73819 0
      vertex -2.5497 3.08205 0
    endloop
  endfacet
  facet normal 0 0 -1
    outer loop
      vertex -3 2.6365 0
      vertex -2.85156 1.80965 0
      vertex -3 1.72805 0
    endloop
  endfacet
  facet normal 0 0 -1
    outer loop
      vertex -2.37476 1.96457 0
      vertex -3 2.6365 0
      vertex -2.91587 2.73819 0
    endloop
  endfacet
  facet normal 0.844328 -0.535826 0
    outer loop
      vertex 3.23607 -2.35114 13.5
      vertex 3.50523 -1.92701 0
      vertex 3.50523 -1.92701 13.5
    endloop
  endfacet
  facet normal 0.844328 -0.535826 0
    outer loop
      vertex 3.50523 -1.92701 0
      vertex 3.23607 -2.35114 13.5
      vertex 3.23607 -2.35114 0
    endloop
  endfacet
  facet normal 0.24869 -0.968583 0
    outer loop
      vertex 0.749525 -3.92915 0
      vertex 1.23607 -3.80423 13.5
      vertex 0.749525 -3.92915 13.5
    endloop
  endfacet
  facet normal 0.24869 -0.968583 0
    outer loop
      vertex 1.23607 -3.80423 13.5
      vertex 0.749525 -3.92915 0
      vertex 1.23607 -3.80423 0
    endloop
  endfacet
  facet normal 0.684546 -0.72897 0
    outer loop
      vertex 2.5497 -3.08205 0
      vertex 2.91587 -2.73819 13.5
      vertex 2.5497 -3.08205 13.5
    endloop
  endfacet
  facet normal 0.684546 -0.72897 0
    outer loop
      vertex 2.91587 -2.73819 13.5
      vertex 2.5497 -3.08205 0
      vertex 2.91587 -2.73819 0
    endloop
  endfacet
  facet normal 0.587785 -0.809017 0
    outer loop
      vertex 2.14331 -3.37731 0
      vertex 2.5497 -3.08205 13.5
      vertex 2.14331 -3.37731 13.5
    endloop
  endfacet
  facet normal 0.587785 -0.809017 0
    outer loop
      vertex 2.5497 -3.08205 13.5
      vertex 2.14331 -3.37731 0
      vertex 2.5497 -3.08205 0
    endloop
  endfacet
  facet normal 0.481754 -0.876307 0
    outer loop
      vertex 1.70312 -3.61931 0
      vertex 2.14331 -3.37731 13.5
      vertex 1.70312 -3.61931 13.5
    endloop
  endfacet
  facet normal 0.481754 -0.876307 0
    outer loop
      vertex 2.14331 -3.37731 13.5
      vertex 1.70312 -3.61931 0
      vertex 2.14331 -3.37731 0
    endloop
  endfacet
  facet normal -0.125333 -0.992115 0
    outer loop
      vertex -0.749525 -3.92915 0
      vertex -0.251162 -3.99211 13.5
      vertex -0.749525 -3.92915 13.5
    endloop
  endfacet
  facet normal -0.125333 -0.992115 -0
    outer loop
      vertex -0.251162 -3.99211 13.5
      vertex -0.749525 -3.92915 0
      vertex -0.251162 -3.99211 0
    endloop
  endfacet
  facet normal -0.24869 -0.968583 0
    outer loop
      vertex -1.23607 -3.80423 0
      vertex -0.749525 -3.92915 13.5
      vertex -1.23607 -3.80423 13.5
    endloop
  endfacet
  facet normal -0.24869 -0.968583 -0
    outer loop
      vertex -0.749525 -3.92915 13.5
      vertex -1.23607 -3.80423 0
      vertex -0.749525 -3.92915 0
    endloop
  endfacet
  facet normal -0.684546 -0.72897 0
    outer loop
      vertex -2.91587 -2.73819 0
      vertex -2.5497 -3.08205 13.5
      vertex -2.91587 -2.73819 13.5
    endloop
  endfacet
  facet normal -0.684546 -0.72897 -0
    outer loop
      vertex -2.5497 -3.08205 13.5
      vertex -2.91587 -2.73819 0
      vertex -2.5497 -3.08205 0
    endloop
  endfacet
  facet normal -0.481754 -0.876307 0
    outer loop
      vertex -2.14331 -3.37731 0
      vertex -1.70312 -3.61931 13.5
      vertex -2.14331 -3.37731 13.5
    endloop
  endfacet
  facet normal -0.481754 -0.876307 -0
    outer loop
      vertex -1.70312 -3.61931 13.5
      vertex -2.14331 -3.37731 0
      vertex -1.70312 -3.61931 0
    endloop
  endfacet
  facet normal -0.587785 -0.809017 0
    outer loop
      vertex -2.5497 -3.08205 0
      vertex -2.14331 -3.37731 13.5
      vertex -2.5497 -3.08205 13.5
    endloop
  endfacet
  facet normal -0.587785 -0.809017 -0
    outer loop
      vertex -2.14331 -3.37731 13.5
      vertex -2.5497 -3.08205 0
      vertex -2.14331 -3.37731 0
    endloop
  endfacet
  facet normal -0.368126 -0.929776 0
    outer loop
      vertex -1.70312 -3.61931 0
      vertex -1.23607 -3.80423 13.5
      vertex -1.70312 -3.61931 13.5
    endloop
  endfacet
  facet normal -0.368126 -0.929776 -0
    outer loop
      vertex -1.23607 -3.80423 13.5
      vertex -1.70312 -3.61931 0
      vertex -1.23607 -3.80423 0
    endloop
  endfacet
  facet normal -0.844328 -0.535826 0
    outer loop
      vertex -0.247386 0.963507 0
      vertex -0.381966 1.17557 13.5
      vertex -0.381966 1.17557 0
    endloop
  endfacet
  facet normal -0.844328 -0.535826 0
    outer loop
      vertex -0.381966 1.17557 13.5
      vertex -0.247386 0.963507 0
      vertex -0.247386 0.963507 13.5
    endloop
  endfacet
  facet normal -0.368128 -0.929775 0
    outer loop
      vertex -1.38197 1.90211 0
      vertex -1.14844 1.80965 13.5
      vertex -1.38197 1.90211 13.5
    endloop
  endfacet
  facet normal -0.368128 -0.929775 -0
    outer loop
      vertex -1.14844 1.80965 13.5
      vertex -1.38197 1.90211 0
      vertex -1.14844 1.80965 0
    endloop
  endfacet
  facet normal 0.368128 -0.929775 0
    outer loop
      vertex -2.85156 1.80965 0
      vertex -2.61803 1.90211 13.5
      vertex -2.85156 1.80965 13.5
    endloop
  endfacet
  facet normal 0.368128 -0.929775 0
    outer loop
      vertex -2.61803 1.90211 13.5
      vertex -2.85156 1.80965 0
      vertex -2.61803 1.90211 0
    endloop
  endfacet
  facet normal -0.998027 0.0627882 0
    outer loop
      vertex -0.01577 -0.250666 0
      vertex 0 0 13.5
      vertex 0 0 0
    endloop
  endfacet
  facet normal -0.998027 0.0627882 0
    outer loop
      vertex 0 0 13.5
      vertex -0.01577 -0.250666 0
      vertex -0.01577 -0.250666 13.5
    endloop
  endfacet
  facet normal -0.368128 0.929775 0
    outer loop
      vertex -1.14844 -1.80965 0
      vertex -1.38197 -1.90211 13.5
      vertex -1.14844 -1.80965 13.5
    endloop
  endfacet
  facet normal -0.368128 0.929775 0
    outer loop
      vertex -1.38197 -1.90211 13.5
      vertex -1.14844 -1.80965 0
      vertex -1.38197 -1.90211 0
    endloop
  endfacet
  facet normal -0.684545 -0.72897 0
    outer loop
      vertex -0.725152 1.54103 0
      vertex -0.542062 1.36909 13.5
      vertex -0.725152 1.54103 13.5
    endloop
  endfacet
  facet normal -0.684545 -0.72897 -0
    outer loop
      vertex -0.542062 1.36909 13.5
      vertex -0.725152 1.54103 0
      vertex -0.542062 1.36909 0
    endloop
  endfacet
  facet normal 0 -1 0
    outer loop
      vertex -2.12558 1.99605 0
      vertex -1.87442 1.99605 13.5
      vertex -2.12558 1.99605 13.5
    endloop
  endfacet
  facet normal 0 -1 -0
    outer loop
      vertex -1.87442 1.99605 13.5
      vertex -2.12558 1.99605 0
      vertex -1.87442 1.99605 0
    endloop
  endfacet
  facet normal -0.587785 -0.809017 0
    outer loop
      vertex -0.928346 1.68865 0
      vertex -0.725152 1.54103 13.5
      vertex -0.928346 1.68865 13.5
    endloop
  endfacet
  facet normal -0.587785 -0.809017 -0
    outer loop
      vertex -0.725152 1.54103 13.5
      vertex -0.928346 1.68865 0
      vertex -0.725152 1.54103 0
    endloop
  endfacet
  facet normal 0.481753 -0.876307 0
    outer loop
      vertex -3 1.72805 0
      vertex -2.85156 1.80965 13.5
      vertex -3 1.72805 13.5
    endloop
  endfacet
  facet normal 0.481753 -0.876307 0
    outer loop
      vertex -2.85156 1.80965 13.5
      vertex -3 1.72805 0
      vertex -2.85156 1.80965 0
    endloop
  endfacet
  facet normal -0.982287 0.18738 0
    outer loop
      vertex -0.0628328 -0.497379 0
      vertex -0.01577 -0.250666 13.5
      vertex -0.01577 -0.250666 0
    endloop
  endfacet
  facet normal -0.982287 0.18738 0
    outer loop
      vertex -0.01577 -0.250666 13.5
      vertex -0.0628328 -0.497379 0
      vertex -0.0628328 -0.497379 13.5
    endloop
  endfacet
  facet normal -0.481753 0.876307 0
    outer loop
      vertex -0.928346 -1.68865 0
      vertex -1.14844 -1.80965 13.5
      vertex -0.928346 -1.68865 13.5
    endloop
  endfacet
  facet normal -0.481753 0.876307 0
    outer loop
      vertex -1.14844 -1.80965 13.5
      vertex -0.928346 -1.68865 0
      vertex -1.14844 -1.80965 0
    endloop
  endfacet
  facet normal -0.248688 0.968584 0
    outer loop
      vertex -1.38197 -1.90211 0
      vertex -1.62524 -1.96457 13.5
      vertex -1.38197 -1.90211 13.5
    endloop
  endfacet
  facet normal -0.248688 0.968584 0
    outer loop
      vertex -1.62524 -1.96457 13.5
      vertex -1.38197 -1.90211 0
      vertex -1.62524 -1.96457 0
    endloop
  endfacet
  facet normal -0.770514 -0.637423 0
    outer loop
      vertex -0.381966 1.17557 0
      vertex -0.542062 1.36909 13.5
      vertex -0.542062 1.36909 0
    endloop
  endfacet
  facet normal -0.770514 -0.637423 0
    outer loop
      vertex -0.542062 1.36909 13.5
      vertex -0.381966 1.17557 0
      vertex -0.381966 1.17557 13.5
    endloop
  endfacet
  facet normal -0.248688 -0.968584 0
    outer loop
      vertex -1.62524 1.96457 0
      vertex -1.38197 1.90211 13.5
      vertex -1.62524 1.96457 13.5
    endloop
  endfacet
  facet normal -0.248688 -0.968584 -0
    outer loop
      vertex -1.38197 1.90211 13.5
      vertex -1.62524 1.96457 0
      vertex -1.38197 1.90211 0
    endloop
  endfacet
  facet normal -0.125333 -0.992115 0
    outer loop
      vertex -1.87442 1.99605 0
      vertex -1.62524 1.96457 13.5
      vertex -1.87442 1.99605 13.5
    endloop
  endfacet
  facet normal -0.125333 -0.992115 -0
    outer loop
      vertex -1.62524 1.96457 13.5
      vertex -1.87442 1.99605 0
      vertex -1.62524 1.96457 0
    endloop
  endfacet
  facet normal 0.125333 -0.992115 0
    outer loop
      vertex -2.37476 1.96457 0
      vertex -2.12558 1.99605 13.5
      vertex -2.37476 1.96457 13.5
    endloop
  endfacet
  facet normal 0.125333 -0.992115 0
    outer loop
      vertex -2.12558 1.99605 13.5
      vertex -2.37476 1.96457 0
      vertex -2.12558 1.99605 0
    endloop
  endfacet
  facet normal 0.248688 -0.968584 0
    outer loop
      vertex -2.61803 1.90211 0
      vertex -2.37476 1.96457 13.5
      vertex -2.61803 1.90211 13.5
    endloop
  endfacet
  facet normal 0.248688 -0.968584 0
    outer loop
      vertex -2.37476 1.96457 13.5
      vertex -2.61803 1.90211 0
      vertex -2.37476 1.96457 0
    endloop
  endfacet
  facet normal -0.998027 -0.0627882 0
    outer loop
      vertex 0 0 0
      vertex -0.01577 0.250666 13.5
      vertex -0.01577 0.250666 0
    endloop
  endfacet
  facet normal -0.998027 -0.0627882 0
    outer loop
      vertex -0.01577 0.250666 13.5
      vertex 0 0 0
      vertex 0 0 13.5
    endloop
  endfacet
  facet normal -0.770514 0.637423 0
    outer loop
      vertex -0.542062 -1.36909 0
      vertex -0.381966 -1.17557 13.5
      vertex -0.381966 -1.17557 0
    endloop
  endfacet
  facet normal -0.770514 0.637423 0
    outer loop
      vertex -0.381966 -1.17557 13.5
      vertex -0.542062 -1.36909 0
      vertex -0.542062 -1.36909 13.5
    endloop
  endfacet
  facet normal -0.844328 0.535826 0
    outer loop
      vertex -0.381966 -1.17557 0
      vertex -0.247386 -0.963507 13.5
      vertex -0.247386 -0.963507 0
    endloop
  endfacet
  facet normal -0.844328 0.535826 0
    outer loop
      vertex -0.247386 -0.963507 13.5
      vertex -0.381966 -1.17557 0
      vertex -0.381966 -1.17557 13.5
    endloop
  endfacet
  facet normal -0.125333 0.992115 0
    outer loop
      vertex -1.62524 -1.96457 0
      vertex -1.87442 -1.99605 13.5
      vertex -1.62524 -1.96457 13.5
    endloop
  endfacet
  facet normal -0.125333 0.992115 0
    outer loop
      vertex -1.87442 -1.99605 13.5
      vertex -1.62524 -1.96457 0
      vertex -1.87442 -1.99605 0
    endloop
  endfacet
  facet normal -0.904827 -0.425779 0
    outer loop
      vertex -0.140447 0.736249 0
      vertex -0.247386 0.963507 13.5
      vertex -0.247386 0.963507 0
    endloop
  endfacet
  facet normal -0.904827 -0.425779 0
    outer loop
      vertex -0.247386 0.963507 13.5
      vertex -0.140447 0.736249 0
      vertex -0.140447 0.736249 13.5
    endloop
  endfacet
  facet normal -0.951056 -0.309018 0
    outer loop
      vertex -0.0628328 0.497379 0
      vertex -0.140447 0.736249 13.5
      vertex -0.140447 0.736249 0
    endloop
  endfacet
  facet normal -0.951056 -0.309018 0
    outer loop
      vertex -0.140447 0.736249 13.5
      vertex -0.0628328 0.497379 0
      vertex -0.0628328 0.497379 13.5
    endloop
  endfacet
  facet normal -0.982287 -0.18738 0
    outer loop
      vertex -0.01577 0.250666 0
      vertex -0.0628328 0.497379 13.5
      vertex -0.0628328 0.497379 0
    endloop
  endfacet
  facet normal -0.982287 -0.18738 0
    outer loop
      vertex -0.0628328 0.497379 13.5
      vertex -0.01577 0.250666 0
      vertex -0.01577 0.250666 13.5
    endloop
  endfacet
  facet normal -0.481753 -0.876307 0
    outer loop
      vertex -1.14844 1.80965 0
      vertex -0.928346 1.68865 13.5
      vertex -1.14844 1.80965 13.5
    endloop
  endfacet
  facet normal -0.481753 -0.876307 -0
    outer loop
      vertex -0.928346 1.68865 13.5
      vertex -1.14844 1.80965 0
      vertex -0.928346 1.68865 0
    endloop
  endfacet
  facet normal -0.904827 0.425779 0
    outer loop
      vertex -0.247386 -0.963507 0
      vertex -0.140447 -0.736249 13.5
      vertex -0.140447 -0.736249 0
    endloop
  endfacet
  facet normal -0.904827 0.425779 0
    outer loop
      vertex -0.140447 -0.736249 13.5
      vertex -0.247386 -0.963507 0
      vertex -0.247386 -0.963507 13.5
    endloop
  endfacet
  facet normal 0 1 -0
    outer loop
      vertex -1.87442 -1.99605 0
      vertex -2.12558 -1.99605 13.5
      vertex -1.87442 -1.99605 13.5
    endloop
  endfacet
  facet normal 0 1 0
    outer loop
      vertex -2.12558 -1.99605 13.5
      vertex -1.87442 -1.99605 0
      vertex -2.12558 -1.99605 0
    endloop
  endfacet
  facet normal 0.368128 0.929775 -0
    outer loop
      vertex -2.61803 -1.90211 0
      vertex -2.85156 -1.80965 13.5
      vertex -2.61803 -1.90211 13.5
    endloop
  endfacet
  facet normal 0.368128 0.929775 0
    outer loop
      vertex -2.85156 -1.80965 13.5
      vertex -2.61803 -1.90211 0
      vertex -2.85156 -1.80965 0
    endloop
  endfacet
  facet normal -0.587785 0.809017 0
    outer loop
      vertex -0.725152 -1.54103 0
      vertex -0.928346 -1.68865 13.5
      vertex -0.725152 -1.54103 13.5
    endloop
  endfacet
  facet normal -0.587785 0.809017 0
    outer loop
      vertex -0.928346 -1.68865 13.5
      vertex -0.725152 -1.54103 0
      vertex -0.928346 -1.68865 0
    endloop
  endfacet
  facet normal -0.684545 0.72897 0
    outer loop
      vertex -0.542062 -1.36909 0
      vertex -0.725152 -1.54103 13.5
      vertex -0.542062 -1.36909 13.5
    endloop
  endfacet
  facet normal -0.684545 0.72897 0
    outer loop
      vertex -0.725152 -1.54103 13.5
      vertex -0.542062 -1.36909 0
      vertex -0.725152 -1.54103 0
    endloop
  endfacet
  facet normal -0.951056 0.309018 0
    outer loop
      vertex -0.140447 -0.736249 0
      vertex -0.0628328 -0.497379 13.5
      vertex -0.0628328 -0.497379 0
    endloop
  endfacet
  facet normal -0.951056 0.309018 0
    outer loop
      vertex -0.0628328 -0.497379 13.5
      vertex -0.140447 -0.736249 0
      vertex -0.140447 -0.736249 13.5
    endloop
  endfacet
  facet normal 0.248688 0.968584 -0
    outer loop
      vertex -2.37476 -1.96457 0
      vertex -2.61803 -1.90211 13.5
      vertex -2.37476 -1.96457 13.5
    endloop
  endfacet
  facet normal 0.248688 0.968584 0
    outer loop
      vertex -2.61803 -1.90211 13.5
      vertex -2.37476 -1.96457 0
      vertex -2.61803 -1.90211 0
    endloop
  endfacet
  facet normal 0.481753 0.876307 -0
    outer loop
      vertex -2.85156 -1.80965 0
      vertex -3 -1.72805 13.5
      vertex -2.85156 -1.80965 13.5
    endloop
  endfacet
  facet normal 0.481753 0.876307 0
    outer loop
      vertex -3 -1.72805 13.5
      vertex -2.85156 -1.80965 0
      vertex -3 -1.72805 0
    endloop
  endfacet
  facet normal 0.125333 0.992115 -0
    outer loop
      vertex -2.12558 -1.99605 0
      vertex -2.37476 -1.96457 13.5
      vertex -2.12558 -1.99605 13.5
    endloop
  endfacet
  facet normal 0.125333 0.992115 0
    outer loop
      vertex -2.37476 -1.96457 13.5
      vertex -2.12558 -1.99605 0
      vertex -2.37476 -1.96457 0
    endloop
  endfacet
  facet normal -1 0 0
    outer loop
      vertex -3 -2.6365 0
      vertex -3 -1.72805 13.5
      vertex -3 -1.72805 0
    endloop
  endfacet
  facet normal -1 -0 0
    outer loop
      vertex -3 -1.72805 13.5
      vertex -3 -2.6365 0
      vertex -3 -2.6365 13.5
    endloop
  endfacet
  facet normal -1 0 0
    outer loop
      vertex -3 1.72805 0
      vertex -3 2.6365 13.5
      vertex -3 2.6365 0
    endloop
  endfacet
  facet normal -1 -0 0
    outer loop
      vertex -3 2.6365 13.5
      vertex -3 1.72805 0
      vertex -3 1.72805 13.5
    endloop
  endfacet
endsolid OpenSCAD_Model
