solid OpenSCAD_Model
  facet normal -1 0 0
    outer loop
      vertex 0 0 0
      vertex 0 39.5 5
      vertex 0 39.5 0
    endloop
  endfacet
  facet normal -1 -0 0
    outer loop
      vertex 0 39.5 5
      vertex 0 0 0
      vertex 0 0 5
    endloop
  endfacet
  facet normal 0 0 1
    outer loop
      vertex 52 39.5 5
      vertex 51 38.5 5
      vertex 52 0 5
    endloop
  endfacet
  facet normal 0 0 1
    outer loop
      vertex 52 39.5 5
      vertex 1 38.5 5
      vertex 51 38.5 5
    endloop
  endfacet
  facet normal 0 0 1
    outer loop
      vertex 1 38.5 5
      vertex 0 39.5 5
      vertex 1 1 5
    endloop
  endfacet
  facet normal -0 0 1
    outer loop
      vertex 0 39.5 5
      vertex 1 38.5 5
      vertex 52 39.5 5
    endloop
  endfacet
  facet normal -0 0 1
    outer loop
      vertex 51 1 5
      vertex 52 0 5
      vertex 51 38.5 5
    endloop
  endfacet
  facet normal -0 0 1
    outer loop
      vertex 1 1 5
      vertex 52 0 5
      vertex 51 1 5
    endloop
  endfacet
  facet normal 0 0 1
    outer loop
      vertex 1 1 5
      vertex 0 0 5
      vertex 52 0 5
    endloop
  endfacet
  facet normal 0 0 1
    outer loop
      vertex 0 0 5
      vertex 1 1 5
      vertex 0 39.5 5
    endloop
  endfacet
  facet normal 1 -0 0
    outer loop
      vertex 52 0 5
      vertex 52 39.5 0
      vertex 52 39.5 5
    endloop
  endfacet
  facet normal 1 0 0
    outer loop
      vertex 52 39.5 0
      vertex 52 0 5
      vertex 52 0 0
    endloop
  endfacet
  facet normal 0 1 -0
    outer loop
      vertex 52 39.5 0
      vertex 0 39.5 5
      vertex 52 39.5 5
    endloop
  endfacet
  facet normal 0 1 0
    outer loop
      vertex 0 39.5 5
      vertex 52 39.5 0
      vertex 0 39.5 0
    endloop
  endfacet
  facet normal 0 0 -1
    outer loop
      vertex 0 0 0
      vertex 52 39.5 0
      vertex 52 0 0
    endloop
  endfacet
  facet normal -0 0 -1
    outer loop
      vertex 52 39.5 0
      vertex 0 0 0
      vertex 0 39.5 0
    endloop
  endfacet
  facet normal 0 -1 0
    outer loop
      vertex 0 0 0
      vertex 52 0 5
      vertex 0 0 5
    endloop
  endfacet
  facet normal 0 -1 -0
    outer loop
      vertex 52 0 5
      vertex 0 0 0
      vertex 52 0 0
    endloop
  endfacet
  facet normal -1 0 0
    outer loop
      vertex 1 1 5
      vertex 1 38.5 10
      vertex 1 38.5 5
    endloop
  endfacet
  facet normal -1 -0 0
    outer loop
      vertex 1 38.5 10
      vertex 1 1 5
      vertex 1 1 10
    endloop
  endfacet
  facet normal 0 0 1
    outer loop
      vertex 51 38.5 10
      vertex 49 36.5 10
      vertex 51 1 10
    endloop
  endfacet
  facet normal 0 0 1
    outer loop
      vertex 51 38.5 10
      vertex 3 36.5 10
      vertex 49 36.5 10
    endloop
  endfacet
  facet normal 0 0 1
    outer loop
      vertex 3 36.5 10
      vertex 1 38.5 10
      vertex 3 3 10
    endloop
  endfacet
  facet normal -0 0 1
    outer loop
      vertex 1 38.5 10
      vertex 3 36.5 10
      vertex 51 38.5 10
    endloop
  endfacet
  facet normal -0 0 1
    outer loop
      vertex 49 3 10
      vertex 51 1 10
      vertex 49 36.5 10
    endloop
  endfacet
  facet normal -0 0 1
    outer loop
      vertex 3 3 10
      vertex 51 1 10
      vertex 49 3 10
    endloop
  endfacet
  facet normal 0 0 1
    outer loop
      vertex 3 3 10
      vertex 1 1 10
      vertex 51 1 10
    endloop
  endfacet
  facet normal 0 0 1
    outer loop
      vertex 1 1 10
      vertex 3 3 10
      vertex 1 38.5 10
    endloop
  endfacet
  facet normal 1 -0 0
    outer loop
      vertex 51 1 10
      vertex 51 38.5 5
      vertex 51 38.5 10
    endloop
  endfacet
  facet normal 1 0 0
    outer loop
      vertex 51 38.5 5
      vertex 51 1 10
      vertex 51 1 5
    endloop
  endfacet
  facet normal 0 1 -0
    outer loop
      vertex 51 38.5 5
      vertex 1 38.5 10
      vertex 51 38.5 10
    endloop
  endfacet
  facet normal 0 1 0
    outer loop
      vertex 1 38.5 10
      vertex 51 38.5 5
      vertex 1 38.5 5
    endloop
  endfacet
  facet normal 0 -1 0
    outer loop
      vertex 1 1 5
      vertex 51 1 10
      vertex 1 1 10
    endloop
  endfacet
  facet normal 0 -1 -0
    outer loop
      vertex 51 1 10
      vertex 1 1 5
      vertex 51 1 5
    endloop
  endfacet
  facet normal 1 -0 0
    outer loop
      vertex 3 3 10
      vertex 3 36.5 3
      vertex 3 36.5 10
    endloop
  endfacet
  facet normal 1 0 0
    outer loop
      vertex 3 36.5 3
      vertex 3 3 10
      vertex 3 3 3
    endloop
  endfacet
  facet normal -1 0 0
    outer loop
      vertex 49 3 3
      vertex 49 36.5 10
      vertex 49 36.5 3
    endloop
  endfacet
  facet normal -1 -0 0
    outer loop
      vertex 49 36.5 10
      vertex 49 3 3
      vertex 49 3 10
    endloop
  endfacet
  facet normal -0 0 1
    outer loop
      vertex 3 36.5 3
      vertex 49 3 3
      vertex 49 36.5 3
    endloop
  endfacet
  facet normal 0 0 1
    outer loop
      vertex 49 3 3
      vertex 3 36.5 3
      vertex 3 3 3
    endloop
  endfacet
  facet normal 0 1 -0
    outer loop
      vertex 49 3 3
      vertex 3 3 10
      vertex 49 3 10
    endloop
  endfacet
  facet normal 0 1 0
    outer loop
      vertex 3 3 10
      vertex 49 3 3
      vertex 3 3 3
    endloop
  endfacet
  facet normal 0 -1 0
    outer loop
      vertex 3 36.5 3
      vertex 49 36.5 10
      vertex 3 36.5 10
    endloop
  endfacet
  facet normal 0 -1 -0
    outer loop
      vertex 49 36.5 10
      vertex 3 36.5 3
      vertex 49 36.5 3
    endloop
  endfacet
endsolid OpenSCAD_Model
