solid OpenSCAD_Model
  facet normal -1 0 0
    outer loop
      vertex 0 0 0
      vertex 0 39.5 5
      vertex 0 39.5 0
    endloop
  endfacet
  facet normal -1 -0 0
    outer loop
      vertex 0 39.5 5
      vertex 0 0 0
      vertex 0 0 5
    endloop
  endfacet
  facet normal 0 0 1
    outer loop
      vertex 51.3 39.5 5
      vertex 50.1 38.3 5
      vertex 51.3 0 5
    endloop
  endfacet
  facet normal 0 0 1
    outer loop
      vertex 51.3 39.5 5
      vertex 1.2 38.3 5
      vertex 50.1 38.3 5
    endloop
  endfacet
  facet normal 0 0 1
    outer loop
      vertex 1.2 38.3 5
      vertex 0 39.5 5
      vertex 1.2 1.2 5
    endloop
  endfacet
  facet normal -0 0 1
    outer loop
      vertex 0 39.5 5
      vertex 1.2 38.3 5
      vertex 51.3 39.5 5
    endloop
  endfacet
  facet normal -0 0 1
    outer loop
      vertex 50.1 1.2 5
      vertex 51.3 0 5
      vertex 50.1 38.3 5
    endloop
  endfacet
  facet normal -0 0 1
    outer loop
      vertex 1.2 1.2 5
      vertex 51.3 0 5
      vertex 50.1 1.2 5
    endloop
  endfacet
  facet normal 0 0 1
    outer loop
      vertex 1.2 1.2 5
      vertex 0 0 5
      vertex 51.3 0 5
    endloop
  endfacet
  facet normal 0 0 1
    outer loop
      vertex 0 0 5
      vertex 1.2 1.2 5
      vertex 0 39.5 5
    endloop
  endfacet
  facet normal 1 -0 0
    outer loop
      vertex 51.3 0 5
      vertex 51.3 39.5 0
      vertex 51.3 39.5 5
    endloop
  endfacet
  facet normal 1 0 0
    outer loop
      vertex 51.3 39.5 0
      vertex 51.3 0 5
      vertex 51.3 0 0
    endloop
  endfacet
  facet normal 0 1 -0
    outer loop
      vertex 51.3 39.5 0
      vertex 0 39.5 5
      vertex 51.3 39.5 5
    endloop
  endfacet
  facet normal 0 1 0
    outer loop
      vertex 0 39.5 5
      vertex 51.3 39.5 0
      vertex 0 39.5 0
    endloop
  endfacet
  facet normal 0 0 -1
    outer loop
      vertex 0 0 0
      vertex 51.3 39.5 0
      vertex 51.3 0 0
    endloop
  endfacet
  facet normal -0 0 -1
    outer loop
      vertex 51.3 39.5 0
      vertex 0 0 0
      vertex 0 39.5 0
    endloop
  endfacet
  facet normal 0 -1 0
    outer loop
      vertex 0 0 0
      vertex 51.3 0 5
      vertex 0 0 5
    endloop
  endfacet
  facet normal 0 -1 -0
    outer loop
      vertex 51.3 0 5
      vertex 0 0 0
      vertex 51.3 0 0
    endloop
  endfacet
  facet normal -1 0 0
    outer loop
      vertex 1.2 26.7 12.5
      vertex 1.2 38.3 5
      vertex 1.2 26.7 6.5
    endloop
  endfacet
  facet normal -1 0 0
    outer loop
      vertex 1.2 38.3 5
      vertex 1.2 20.7 6.5
      vertex 1.2 26.7 6.5
    endloop
  endfacet
  facet normal -1 -0 0
    outer loop
      vertex 1.2 20.7 6.5
      vertex 1.2 1.2 5
      vertex 1.2 20.7 12.5
    endloop
  endfacet
  facet normal -1 0 0
    outer loop
      vertex 1.2 1.2 5
      vertex 1.2 20.7 6.5
      vertex 1.2 38.3 5
    endloop
  endfacet
  facet normal -1 0 0
    outer loop
      vertex 1.2 38.3 5
      vertex 1.2 26.7 12.5
      vertex 1.2 38.3 15
    endloop
  endfacet
  facet normal -1 0 0
    outer loop
      vertex 1.2 20.7 12.5
      vertex 1.2 38.3 15
      vertex 1.2 26.7 12.5
    endloop
  endfacet
  facet normal -1 0 0
    outer loop
      vertex 1.2 20.7 12.5
      vertex 1.2 1.2 15
      vertex 1.2 38.3 15
    endloop
  endfacet
  facet normal -1 0 0
    outer loop
      vertex 1.2 1.2 15
      vertex 1.2 20.7 12.5
      vertex 1.2 1.2 5
    endloop
  endfacet
  facet normal 0 0 1
    outer loop
      vertex 50.1 38.3 15
      vertex 48.1 36.3 15
      vertex 50.1 1.2 15
    endloop
  endfacet
  facet normal 0 0 1
    outer loop
      vertex 50.1 38.3 15
      vertex 3.2 36.3 15
      vertex 48.1 36.3 15
    endloop
  endfacet
  facet normal 0 0 1
    outer loop
      vertex 3.2 36.3 15
      vertex 1.2 38.3 15
      vertex 3.2 3.2 15
    endloop
  endfacet
  facet normal -0 0 1
    outer loop
      vertex 1.2 38.3 15
      vertex 3.2 36.3 15
      vertex 50.1 38.3 15
    endloop
  endfacet
  facet normal -0 0 1
    outer loop
      vertex 48.1 3.2 15
      vertex 50.1 1.2 15
      vertex 48.1 36.3 15
    endloop
  endfacet
  facet normal -0 0 1
    outer loop
      vertex 3.2 3.2 15
      vertex 50.1 1.2 15
      vertex 48.1 3.2 15
    endloop
  endfacet
  facet normal 0 0 1
    outer loop
      vertex 3.2 3.2 15
      vertex 1.2 1.2 15
      vertex 50.1 1.2 15
    endloop
  endfacet
  facet normal 0 0 1
    outer loop
      vertex 1.2 1.2 15
      vertex 3.2 3.2 15
      vertex 1.2 38.3 15
    endloop
  endfacet
  facet normal 1 0 0
    outer loop
      vertex 50.1 38.3 15
      vertex 50.1 26.7 12.5
      vertex 50.1 38.3 5
    endloop
  endfacet
  facet normal 1 0 0
    outer loop
      vertex 50.1 38.3 15
      vertex 50.1 20.7 12.5
      vertex 50.1 26.7 12.5
    endloop
  endfacet
  facet normal 1 0 0
    outer loop
      vertex 50.1 1.2 5
      vertex 50.1 20.7 12.5
      vertex 50.1 1.2 15
    endloop
  endfacet
  facet normal 1 -0 0
    outer loop
      vertex 50.1 1.2 15
      vertex 50.1 20.7 12.5
      vertex 50.1 38.3 15
    endloop
  endfacet
  facet normal 1 -0 0
    outer loop
      vertex 50.1 26.7 6.5
      vertex 50.1 38.3 5
      vertex 50.1 26.7 12.5
    endloop
  endfacet
  facet normal 1 -0 0
    outer loop
      vertex 50.1 20.7 6.5
      vertex 50.1 38.3 5
      vertex 50.1 26.7 6.5
    endloop
  endfacet
  facet normal 1 0 0
    outer loop
      vertex 50.1 20.7 6.5
      vertex 50.1 1.2 5
      vertex 50.1 38.3 5
    endloop
  endfacet
  facet normal 1 0 0
    outer loop
      vertex 50.1 20.7 12.5
      vertex 50.1 1.2 5
      vertex 50.1 20.7 6.5
    endloop
  endfacet
  facet normal 0 1 -0
    outer loop
      vertex 50.1 38.3 5
      vertex 1.2 38.3 15
      vertex 50.1 38.3 15
    endloop
  endfacet
  facet normal 0 1 0
    outer loop
      vertex 1.2 38.3 15
      vertex 50.1 38.3 5
      vertex 1.2 38.3 5
    endloop
  endfacet
  facet normal 0 -1 0
    outer loop
      vertex 1.2 1.2 5
      vertex 50.1 1.2 15
      vertex 1.2 1.2 15
    endloop
  endfacet
  facet normal 0 -1 -0
    outer loop
      vertex 50.1 1.2 15
      vertex 1.2 1.2 5
      vertex 50.1 1.2 5
    endloop
  endfacet
  facet normal 1 0 0
    outer loop
      vertex 3.2 36.3 15
      vertex 3.2 26.7 12.5
      vertex 3.2 36.3 5
    endloop
  endfacet
  facet normal 1 0 0
    outer loop
      vertex 3.2 36.3 15
      vertex 3.2 20.7 12.5
      vertex 3.2 26.7 12.5
    endloop
  endfacet
  facet normal 1 0 0
    outer loop
      vertex 3.2 3.2 5
      vertex 3.2 20.7 12.5
      vertex 3.2 3.2 15
    endloop
  endfacet
  facet normal 1 -0 0
    outer loop
      vertex 3.2 3.2 15
      vertex 3.2 20.7 12.5
      vertex 3.2 36.3 15
    endloop
  endfacet
  facet normal 1 -0 0
    outer loop
      vertex 3.2 26.7 6.5
      vertex 3.2 36.3 5
      vertex 3.2 26.7 12.5
    endloop
  endfacet
  facet normal 1 -0 0
    outer loop
      vertex 3.2 20.7 6.5
      vertex 3.2 36.3 5
      vertex 3.2 26.7 6.5
    endloop
  endfacet
  facet normal 1 0 0
    outer loop
      vertex 3.2 20.7 6.5
      vertex 3.2 3.2 5
      vertex 3.2 36.3 5
    endloop
  endfacet
  facet normal 1 0 0
    outer loop
      vertex 3.2 20.7 12.5
      vertex 3.2 3.2 5
      vertex 3.2 20.7 6.5
    endloop
  endfacet
  facet normal -1 0 0
    outer loop
      vertex 48.1 26.7 12.5
      vertex 48.1 36.3 5
      vertex 48.1 26.7 6.5
    endloop
  endfacet
  facet normal -1 0 0
    outer loop
      vertex 48.1 36.3 5
      vertex 48.1 20.7 6.5
      vertex 48.1 26.7 6.5
    endloop
  endfacet
  facet normal -1 -0 0
    outer loop
      vertex 48.1 20.7 6.5
      vertex 48.1 3.2 5
      vertex 48.1 20.7 12.5
    endloop
  endfacet
  facet normal -1 0 0
    outer loop
      vertex 48.1 3.2 5
      vertex 48.1 20.7 6.5
      vertex 48.1 36.3 5
    endloop
  endfacet
  facet normal -1 0 0
    outer loop
      vertex 48.1 36.3 5
      vertex 48.1 26.7 12.5
      vertex 48.1 36.3 15
    endloop
  endfacet
  facet normal -1 0 0
    outer loop
      vertex 48.1 20.7 12.5
      vertex 48.1 36.3 15
      vertex 48.1 26.7 12.5
    endloop
  endfacet
  facet normal -1 0 0
    outer loop
      vertex 48.1 20.7 12.5
      vertex 48.1 3.2 15
      vertex 48.1 36.3 15
    endloop
  endfacet
  facet normal -1 0 0
    outer loop
      vertex 48.1 3.2 15
      vertex 48.1 20.7 12.5
      vertex 48.1 3.2 5
    endloop
  endfacet
  facet normal 0 -1 0
    outer loop
      vertex 3.2 36.3 5
      vertex 48.1 36.3 15
      vertex 3.2 36.3 15
    endloop
  endfacet
  facet normal 0 -1 -0
    outer loop
      vertex 48.1 36.3 15
      vertex 3.2 36.3 5
      vertex 48.1 36.3 5
    endloop
  endfacet
  facet normal -0 0 1
    outer loop
      vertex 3.2 36.3 5
      vertex 48.1 3.2 5
      vertex 48.1 36.3 5
    endloop
  endfacet
  facet normal 0 0 1
    outer loop
      vertex 48.1 3.2 5
      vertex 3.2 36.3 5
      vertex 3.2 3.2 5
    endloop
  endfacet
  facet normal 0 1 -0
    outer loop
      vertex 48.1 3.2 5
      vertex 3.2 3.2 15
      vertex 48.1 3.2 15
    endloop
  endfacet
  facet normal 0 1 0
    outer loop
      vertex 3.2 3.2 15
      vertex 48.1 3.2 5
      vertex 3.2 3.2 5
    endloop
  endfacet
  facet normal 0 0 -1
    outer loop
      vertex 1.2 20.7 12.5
      vertex 3.2 26.7 12.5
      vertex 3.2 20.7 12.5
    endloop
  endfacet
  facet normal -0 0 -1
    outer loop
      vertex 3.2 26.7 12.5
      vertex 1.2 20.7 12.5
      vertex 1.2 26.7 12.5
    endloop
  endfacet
  facet normal 0 0 -1
    outer loop
      vertex 48.1 20.7 12.5
      vertex 50.1 26.7 12.5
      vertex 50.1 20.7 12.5
    endloop
  endfacet
  facet normal -0 0 -1
    outer loop
      vertex 50.1 26.7 12.5
      vertex 48.1 20.7 12.5
      vertex 48.1 26.7 12.5
    endloop
  endfacet
  facet normal 0 -1 0
    outer loop
      vertex 1.2 26.7 6.5
      vertex 3.2 26.7 12.5
      vertex 1.2 26.7 12.5
    endloop
  endfacet
  facet normal 0 -1 -0
    outer loop
      vertex 3.2 26.7 12.5
      vertex 1.2 26.7 6.5
      vertex 3.2 26.7 6.5
    endloop
  endfacet
  facet normal 0 -1 0
    outer loop
      vertex 48.1 26.7 6.5
      vertex 50.1 26.7 12.5
      vertex 48.1 26.7 12.5
    endloop
  endfacet
  facet normal 0 -1 -0
    outer loop
      vertex 50.1 26.7 12.5
      vertex 48.1 26.7 6.5
      vertex 50.1 26.7 6.5
    endloop
  endfacet
  facet normal -0 0 1
    outer loop
      vertex 1.2 26.7 6.5
      vertex 3.2 20.7 6.5
      vertex 3.2 26.7 6.5
    endloop
  endfacet
  facet normal 0 0 1
    outer loop
      vertex 3.2 20.7 6.5
      vertex 1.2 26.7 6.5
      vertex 1.2 20.7 6.5
    endloop
  endfacet
  facet normal -0 0 1
    outer loop
      vertex 48.1 26.7 6.5
      vertex 50.1 20.7 6.5
      vertex 50.1 26.7 6.5
    endloop
  endfacet
  facet normal 0 0 1
    outer loop
      vertex 50.1 20.7 6.5
      vertex 48.1 26.7 6.5
      vertex 48.1 20.7 6.5
    endloop
  endfacet
  facet normal 0 1 -0
    outer loop
      vertex 3.2 20.7 6.5
      vertex 1.2 20.7 12.5
      vertex 3.2 20.7 12.5
    endloop
  endfacet
  facet normal 0 1 0
    outer loop
      vertex 1.2 20.7 12.5
      vertex 3.2 20.7 6.5
      vertex 1.2 20.7 6.5
    endloop
  endfacet
  facet normal 0 1 -0
    outer loop
      vertex 50.1 20.7 6.5
      vertex 48.1 20.7 12.5
      vertex 50.1 20.7 12.5
    endloop
  endfacet
  facet normal 0 1 0
    outer loop
      vertex 48.1 20.7 12.5
      vertex 50.1 20.7 6.5
      vertex 48.1 20.7 6.5
    endloop
  endfacet
endsolid OpenSCAD_Model
